HIERARCHY
ROOT Hips
{
  OFFSET 16.7372 39.7779 -3.85631
  CHANNELS 6 Xposition Yposition Zposition Zrotation Xrotation Yrotation
  JOINT LeftHip
  {
    OFFSET 3.43 3.55271e-014 1.55431e-015
    CHANNELS 3 Zrotation Xrotation Yrotation
    JOINT LeftKnee
    {
      OFFSET -6.75016e-014 -18.47 7.32747e-014
      CHANNELS 3 Zrotation Xrotation Yrotation
      JOINT LeftAnkle
      {
        OFFSET -2.24176e-012 -17.95 4.05898e-013
        CHANNELS 3 Zrotation Xrotation Yrotation
        End Site
        {
          OFFSET 0 -3.12 0
        }
      }
    }
  }
  JOINT RightHip
  {
    OFFSET -3.43 2.84217e-014 -1.9984e-015
    CHANNELS 3 Zrotation Xrotation Yrotation
    JOINT RightKnee
    {
      OFFSET 1.29674e-013 -18.47 3.19744e-014
      CHANNELS 3 Zrotation Xrotation Yrotation
      JOINT RightAnkle
      {
        OFFSET 4.10338e-012 -17.95 -3.55271e-013
        CHANNELS 3 Zrotation Xrotation Yrotation
        End Site
        {
          OFFSET 0 -3.12 0
        }
      }
    }
  }
  JOINT Chest
  {
    OFFSET -1.77636e-014 4.57 6.66134e-016
    CHANNELS 3 Zrotation Xrotation Yrotation
    JOINT Chest2
    {
      OFFSET -3.55271e-015 6.57 2.22045e-016
      CHANNELS 3 Zrotation Xrotation Yrotation
      JOINT LeftCollar
      {
        OFFSET 1.06 4.19 1.76
        CHANNELS 3 Zrotation Xrotation Yrotation
        JOINT LeftShoulder
        {
          OFFSET 5.81 -7.10543e-015 -5.32907e-015
          CHANNELS 3 Zrotation Xrotation Yrotation
          JOINT LeftElbow
          {
            OFFSET 2.06057e-013 -12.08 -7.28306e-014
            CHANNELS 3 Zrotation Xrotation Yrotation
            JOINT LeftWrist
            {
              OFFSET 7.67386e-013 -9.82 -1.01252e-013
              CHANNELS 3 Zrotation Xrotation Yrotation
              End Site
              {
                OFFSET 0 -7.37 0
              }
            }
          }
        }
      }
      JOINT RightCollar
      {
        OFFSET -1.06 4.19 1.76
        CHANNELS 3 Zrotation Xrotation Yrotation
        JOINT RightShoulder
        {
          OFFSET -6.06 7.10543e-015 -5.77316e-015
          CHANNELS 3 Zrotation Xrotation Yrotation
          JOINT RightElbow
          {
            OFFSET -1.63425e-013 -11.08 8.70415e-014
            CHANNELS 3 Zrotation Xrotation Yrotation
            JOINT RightWrist
            {
              OFFSET -5.61329e-013 -9.82 2.98428e-013
              CHANNELS 3 Zrotation Xrotation Yrotation
              End Site
              {
                OFFSET 0 -7.14001 0
              }
            }
          }
        }
      }
      JOINT Neck
      {
        OFFSET 0 4.05 -6.66134e-015
        CHANNELS 3 Zrotation Xrotation Yrotation
        JOINT Head
        {
          OFFSET 3.55271e-015 5.19 -2.66454e-014
          CHANNELS 3 Zrotation Xrotation Yrotation
          End Site
          {
            OFFSET 0 4.14001 0
          }
        }
      }
    }
  }
}
MOTION
Frames:	18
Frame Time:	0.0333333
16.7372 39.7779 -3.85631 0.34309 -4.26128 -0.700338 2.43013 1.10778 2.00929 1.11933 15.6252 19.7182 -4.1761 -10.3407 -0.378042 -2.68239 3.40666 -5.83949 -0.431217 12.5366 -4.36692 3.53217 -9.93735 0.307176 -0.228086 -0.148051 -0.0415783 -0.037119 -2.8286 -0.380568 10.8889 0.165467 3.21611 97.9806 3.39276 11.5195 -4.39935 -4.20932 -0.323546 9.77996 -1.20477 -15.3859 -9.37861 0.398524 -2.95345 -93.4702 7.50882 -8.63703 4.29868 -1.607 0.120778 -16.1876 -2.71651 11.8367 -0.289774 14.17 0.148824 0.0721846 -2.91778 0.169792 
16.733 39.7792 -3.86318 0.341459 -4.11713 -0.591139 2.4875 0.962511 2.04433 1.10483 15.5854 19.3873 -4.14162 -10.3329 -0.374633 -2.6259 3.06258 -5.7602 -0.440223 12.9178 -4.36189 3.49238 -10.0196 0.306241 -0.144424 -0.215872 0.00147565 0.151711 -2.89557 -0.271168 10.2871 0.176472 3.82072 98.1849 2.36404 11.7494 -4.50673 -3.67521 -0.289479 9.65599 -1.25524 -15.2149 -10.4255 0.439594 -3.24942 -92.6967 7.58762 -8.70873 4.24909 -2.03851 0.151423 -15.9141 -2.65933 11.8814 -0.90758 14.0201 0.152233 0.624728 -2.58649 -0.254795 
16.7287 39.7747 -3.87125 0.376736 -4.16815 -0.605663 2.47003 1.13596 2.05421 1.10945 15.3178 19.6603 -4.32477 -10.147 -0.384141 -2.66157 3.22854 -5.85806 -0.361051 12.6208 -4.68498 3.46881 -9.98554 0.303132 -0.205016 -0.181641 -0.0029721 0.0997595 -2.8496 -0.288124 10.4985 0.187899 3.91139 97.9226 2.34924 11.9644 -4.44956 -3.9337 -0.305862 9.77916 -1.14667 -14.9635 -10.3722 0.437472 -3.23645 -92.5449 7.54355 -8.90767 4.17361 -2.07672 0.151509 -16.096 -2.4338 11.8567 -0.704997 13.9445 0.0769541 0.435797 -2.40471 -0.200536 
16.7129 39.7825 -3.88038 0.396909 -4.19297 -0.553487 2.48861 1.0292 2.10195 1.06725 15.5206 19.4731 -4.11106 -10.2431 -0.368619 -2.63306 3.24936 -5.83076 -0.399127 12.6624 -4.7206 3.47274 -9.95372 0.302504 -0.229489 -0.183158 -0.0246115 0.0888638 -2.83772 -0.330921 10.4565 0.184618 3.87276 97.9875 2.4383 11.8486 -4.49473 -4.13437 -0.324714 9.65011 -0.822249 -14.8492 -10.501 0.440836 -3.23062 -92.3412 7.49898 -8.91378 4.18602 -1.9615 0.143534 -16.2374 -2.6321 11.9871 -0.728594 14.0053 0.0304498 0.493726 -2.41996 -0.267375 
16.7055 39.766 -3.88369 0.428795 -4.20258 -0.626276 2.43452 1.32064 2.00565 1.18581 15.0342 19.4546 -4.5082 -10.0139 -0.395171 -2.66105 3.16313 -5.8334 -0.377807 12.7843 -4.68553 3.42815 -10.1277 0.303864 -0.253556 -0.167265 0.00500002 0.100712 -2.84364 -0.281654 10.3253 0.181393 3.89896 97.9846 2.27565 11.8671 -4.4853 -3.29304 -0.258174 9.70707 -1.46371 -14.5584 -10.58 0.442291 -3.21467 -92.3662 7.44873 -9.06406 4.17273 -1.87034 0.13643 -16.0076 -2.6801 11.744 -0.817069 13.9494 0.0773401 0.589049 -2.24413 -0.292765 
16.7001 39.7683 -3.88955 0.378301 -4.17581 -0.610375 2.5461 1.07755 2.11105 1.04043 15.3894 19.4086 -4.32776 -10.1793 -0.385636 -2.6614 3.04548 -5.89105 -0.285636 12.9465 -4.64763 3.37466 -10.1165 0.298787 -0.166017 -0.180612 -0.0182457 0.154212 -2.87243 -0.297539 10.1665 0.176032 3.90021 98.0758 2.33583 11.6624 -4.56965 -3.34458 -0.267162 9.76372 -1.3674 -14.8362 -10.8084 0.447545 -3.19159 -92.2137 7.41102 -8.97417 4.23064 -1.73548 0.128359 -16.0475 -2.72362 11.8026 -0.932709 13.9585 0.100431 0.571339 -2.31451 -0.310807 
16.6893 39.7727 -3.89349 0.381223 -4.24286 -0.612005 2.5047 1.10728 2.0762 1.07654 15.4529 19.6753 -4.30619 -10.1719 -0.383432 -2.65028 3.22714 -5.89844 -0.335051 12.7286 -4.74039 3.43034 -10.0255 0.300975 -0.171061 -0.152325 -0.0225622 0.130138 -2.8136 -0.296044 10.0158 0.170199 3.88445 98.2513 2.37913 11.6622 -4.5725 -3.37277 -0.26958 9.82044 -1.22988 -14.7294 -10.7461 0.44809 -3.23711 -92.2458 7.34984 -9.05843 4.20819 -1.86568 0.13725 -16.1832 -2.49552 11.8465 -0.961974 13.9944 0.134342 0.680362 -2.31429 -0.313519 
16.6787 39.776 -3.90316 0.362678 -4.1892 -0.579601 2.49699 1.05124 2.01111 1.10124 15.3897 19.6795 -4.31429 -10.1133 -0.381931 -2.66078 3.08175 -5.91541 -0.323243 12.866 -4.57583 3.41163 -10.0079 0.298803 -0.15202 -0.165178 -0.0432378 0.0657846 -2.85357 -0.310776 10.1135 0.173245 3.87829 98.2226 2.41328 11.4513 -4.62951 -3.25297 -0.263271 9.90861 -1.23053 -14.593 -10.6598 0.445841 -3.24102 -92.2643 7.35641 -9.14581 4.17454 -1.86406 0.136031 -16.0476 -2.56863 11.6731 -0.892384 13.985 0.0923627 0.635612 -2.22377 -0.321131 
16.6684 39.7765 -3.90185 0.31858 -4.12969 -0.585035 2.56567 0.931593 2.0397 1.16064 15.4964 19.4017 -4.31047 -10.1648 -0.383545 -2.59409 2.96745 -5.87697 -0.270673 12.9768 -4.63583 3.34853 -10.0224 0.2937 -0.138031 -0.23731 -0.0797895 0.144362 -2.95308 -0.372425 9.89919 0.164519 3.84429 98.489 2.54254 11.3183 -4.65994 -3.31082 -0.269717 9.7018 -1.06948 -14.3407 -10.8854 0.443305 -3.06733 -92.1507 7.45569 -8.97619 4.20965 -1.92815 0.141894 -15.8323 -2.51406 11.9353 -1.09357 14.0056 0.225214 0.980119 -1.93707 -0.346821 
16.6542 39.7783 -3.91012 0.279869 -4.21392 -0.578998 2.64519 0.9004 2.09897 1.13289 15.7305 19.517 -4.25691 -10.2554 -0.382168 -2.496 3.06252 -5.89995 -0.274401 12.9646 -5.12916 3.39136 -9.97925 0.296173 -0.115427 -0.195297 -0.0528432 0.152871 -2.87699 -0.32486 9.90925 0.162183 3.78197 98.4309 2.49079 11.5881 -4.56756 -3.08321 -0.246192 9.63105 -1.30088 -14.208 -10.7941 0.446598 -3.18078 -92.2911 7.37325 -9.15612 4.16517 -1.88701 0.137395 -15.9897 -2.53329 12.1617 -1.09667 14.0774 0.176206 1.00397 -2.01095 -0.398555 
16.641 39.782 -3.91736 0.339997 -4.27593 -0.582853 2.64162 1.08191 2.14867 1.07371 15.4866 19.3901 -4.21766 -10.1518 -0.374796 -2.56236 3.17661 -5.91058 -0.265141 12.8712 -4.73576 3.3098 -9.98354 0.28917 -0.213752 -0.148645 -0.0551908 0.0974633 -2.81274 -0.348553 9.92617 0.165014 3.83473 98.5162 2.44379 11.5758 -4.57512 -2.8478 -0.227789 9.71619 -1.46377 -14.1327 -10.863 0.443376 -3.08045 -92.1652 7.45782 -8.91866 4.25009 -1.86101 0.138275 -16.0529 -2.61238 11.577 -1.00972 14.016 0.113098 0.841731 -1.92707 -0.398579 
16.6273 39.7763 -3.92668 0.293024 -4.30127 -0.577274 2.74335 1.07019 2.22094 1.05381 15.4971 19.4434 -4.34491 -10.1022 -0.38422 -2.42104 3.10727 -5.85259 -0.283678 13.0074 -5.15106 3.3136 -10.0295 0.290843 -0.206656 -0.120331 -0.0236168 0.114303 -2.79634 -0.309153 10.0554 0.166247 3.76457 98.2932 2.46107 11.9128 -4.45515 -3.19879 -0.2491 9.67033 -1.35215 -14.67 -10.6975 0.438447 -3.07108 -92.3861 7.53123 -9.06438 4.17021 -1.79906 0.131153 -15.7113 -2.6632 12.2245 -0.969495 14.1562 0.135664 0.90782 -2.25094 -0.364605 
16.6253 39.7775 -3.93764 0.269312 -4.21309 -0.596029 2.71889 0.865774 2.16795 1.05883 15.7052 19.6906 -4.30121 -10.1752 -0.383112 -2.44728 3.02123 -5.88642 -0.262539 12.985 -5.02793 3.31427 -9.99189 0.289805 -0.163124 -0.171029 -0.073647 0.0863362 -2.83415 -0.374613 10.1299 0.174928 3.90341 98.1478 2.53463 11.8621 -4.43562 -3.60975 -0.279825 9.41428 -1.13514 -14.6522 -10.791 0.442204 -3.09563 -92.2755 7.37347 -9.08526 4.19251 -1.82248 0.133572 -15.9671 -2.70215 12.2632 -0.979754 14.1107 0.208503 0.888421 -1.96298 -0.291506 
16.6198 39.7973 -3.9502 0.294332 -4.2218 -0.537886 2.72354 0.889472 2.20776 1.01428 15.5875 19.4688 -4.04017 -10.1155 -0.357721 -2.44584 3.06497 -5.87469 -0.274968 12.8527 -5.00077 3.29321 -9.80082 0.282429 -0.185632 -0.13546 -0.0975795 0.0826883 -2.8081 -0.412035 9.87069 0.164092 3.85677 98.3542 2.57929 12.0365 -4.35743 -3.65595 -0.278387 9.39386 -0.891953 -15.1213 -10.8845 0.446064 -3.12146 -92.1643 7.29845 -9.05237 4.23173 -1.79381 0.132706 -16.1187 -2.73332 12.2356 -1.00545 14.0832 0.171757 0.946379 -1.8648 -0.345139 
16.6144 39.7937 -3.96344 0.372179 -4.2341 -0.501777 2.64245 1.09381 2.15598 1.03973 15.2039 19.3194 -4.15016 -9.94619 -0.361285 -2.5034 3.08358 -5.89968 -0.288536 12.8589 -5.027 3.29583 -9.87607 0.284835 -0.284066 -0.123063 -0.0995463 -0.012723 -2.76496 -0.428443 9.98373 0.167346 3.84394 98.341 2.62687 11.9447 -4.41336 -3.99419 -0.308021 9.50518 -0.892291 -15.17 -10.7314 0.442761 -3.13903 -92.1252 7.3518 -9.26388 4.11555 -1.94346 0.139812 -16.045 -2.77834 12.7708 -0.872553 14.0883 0.052871 1.02295 -1.62552 -0.42629 
16.6091 39.7763 -3.97685 0.25792 -4.22428 -0.511064 2.74191 0.69839 2.15547 1.07629 15.9059 19.4936 -4.25298 -10.2175 -0.380395 -2.37255 2.97716 -5.82123 -0.338453 13.0665 -4.99472 3.32621 -10.0112 0.291416 -0.184736 -0.0998311 -0.126829 0.0333422 -2.74264 -0.454809 10.0019 0.172501 3.9479 98.2828 2.52726 11.7535 -4.5206 -3.9113 -0.308998 9.60658 -0.974768 -14.8307 -10.5772 0.434809 -3.06279 -92.442 7.28314 -8.87622 4.2963 -1.79457 0.134796 -15.9991 -2.66453 12.2687 -0.922477 14.0858 0.0340794 1.0367 -1.78125 -0.458707 
16.6117 39.7813 -3.9936 0.291436 -4.27389 -0.472779 2.73153 0.900046 2.17822 0.994277 15.586 19.5349 -4.2441 -10.0712 -0.374137 -2.42984 3.00489 -5.87959 -0.335404 13.0893 -4.96078 3.33815 -9.97815 0.291491 -0.19794 -0.0420143 -0.102075 -0.0282383 -2.66741 -0.409537 10.0924 0.172201 3.8709 98.113 2.50233 12.0432 -4.42877 -4.23998 -0.328087 9.25069 -0.696581 -15.0689 -10.6211 0.439626 -3.13686 -92.255 7.30381 -8.97724 4.25807 -1.81992 0.135478 -16.0448 -2.70205 11.8615 -0.768765 14.0251 -0.0963625 0.740186 -1.66668 -0.467139 
16.6052 39.7796 -4.00505 0.282024 -4.21449 -0.478345 2.75681 0.856234 2.1922 1.00395 15.5186 19.4216 -4.29222 -10.0269 -0.376712 -2.4123 2.95788 -5.90556 -0.261813 12.9704 -5.17578 3.28897 -9.94112 0.286123 -0.207741 -0.0689201 -0.142048 0.0142224 -2.69756 -0.467831 9.76574 0.165102 3.966 98.4373 2.45753 11.8148 -4.50534 -3.99484 -0.314517 9.41826 -0.61637 -14.8959 -10.7544 0.44101 -3.09165 -92.1005 7.17505 -9.19967 4.21574 -1.82828 0.134742 -16.165 -2.80192 11.9892 -0.934505 13.9923 0.00342788 0.991649 -1.41669 -0.501751 
